<?xml version="1.0" encoding="utf-8"?>
<!-- Generator: Adobe Illustrator 23.1.0, SVG Export Plug-In . SVG Version: 6.00 Build 0)  -->
<svg version="1.1" id="Calque_1" xmlns="http://www.w3.org/2000/svg" xmlns:xlink="http://www.w3.org/1999/xlink" x="0px" y="0px"
	 viewBox="0 0 132 132" style="enable-background:new 0 0 132 132;" xml:space="preserve">
<style type="text/css">
	.st0{fill:#103A4D;}
</style>
<g>
	<polygon class="st0" points="75.3,43.7 75.3,45.3 69.1,45.3 69.1,38 75.2,38 75.2,39.6 71.3,39.6 71.3,40.8 74.7,40.8 74.7,42.4 
		71.3,42.4 71.3,43.7 	"/>
	<path class="st0" d="M81,39.9c-0.2-0.2-0.6-0.3-1-0.3h-1.2v2.1H80c0.4,0,0.8-0.1,1-0.3c0.2-0.2,0.3-0.4,0.3-0.8
		C81.3,40.4,81.2,40.1,81,39.9 M79.9,43.4h-1.2v1.9h-2.2V38h3.5c0.7,0,1.3,0.1,1.8,0.3c0.5,0.2,0.9,0.5,1.2,0.9
		c0.3,0.4,0.4,0.9,0.4,1.4c0,0.5-0.1,1-0.4,1.4c-0.3,0.4-0.6,0.7-1.1,0.9l1.7,2.3h-2.3L79.9,43.4z"/>
	<g>
		<path class="st0" d="M57.6,76.6c0-0.4-0.3-0.6-0.9-0.6c-0.5,0-1.2,0.3-1.8,0.7l-0.6-1c0.8-0.6,1.6-0.9,2.5-0.9
			c1.3,0,2.1,0.6,2.1,1.5c0,0.6-0.5,1.3-1.2,2l-1.5,1.4h2.9v1.1h-4.7v-0.9l2.3-2.3C57.3,77.3,57.6,76.9,57.6,76.6z"/>
		<path class="st0" d="M64.9,77.9c0,1.9-0.9,3-2.4,3c-1.6,0-2.4-1.1-2.4-3c0-1.9,0.9-3,2.4-3C64,74.8,64.9,75.9,64.9,77.9z
			 M61.4,77.9c0,1.4,0.3,2,1.1,2c0.7,0,1.1-0.6,1.1-2c0-1.4-0.3-2-1.1-2C61.7,75.8,61.4,76.4,61.4,77.9z"/>
		<path class="st0" d="M68.8,74.9v6h-1.4V76h-1.3v-1.1H68.8z"/>
		<path class="st0" d="M73.1,79.8c1.1,0,1.6-0.7,1.6-1.8c-0.3,0.5-0.8,0.7-1.6,0.7c-1.2,0-2-0.8-2-1.9c0-1.3,0.9-2,2.3-2
			c1.6,0,2.6,1.1,2.6,2.9c0,1.9-1.1,3.1-2.8,3.1c-0.7,0-1.4-0.2-1.9-0.5l0.5-1C72.1,79.7,72.6,79.8,73.1,79.8z M72.3,76.9
			c0,0.6,0.4,0.9,1,0.9c0.7,0,1.1-0.4,1.1-0.9c0-0.5-0.3-0.9-1.1-0.9C72.7,75.9,72.3,76.3,72.3,76.9z"/>
	</g>
	<polygon class="st0" points="66.4,36.3 66.4,69.9 56.4,69.9 56.4,43.6 49.8,43.6 49.8,36.3 	"/>
	<g>
		<path class="st0" d="M100,49.3c1.5,1.3,3.4,2.3,4.7,3.8c1.7,1.9,2.6,4,2.3,6.5c-0.2,1.3-0.8,1.7-2.1,1c-1.1-0.6-2.3-1.2-3.8-2
			c0.3,1.5,1.3,2.1,1.9,2.9c1.9,2.6,3,5.4,1.7,8.6c-0.4,1.1-0.9,1.4-2.1,0.6c-2.5-1.6-3.7-3.8-3.7-6.5c0-1.3,0.2-2.6,0.3-3.9
			c0.1-1.5,0.4-2.6,2.6-1.1c-1.8-2.8-2.5-5.7-2.5-8.7C99.3,50.1,98.7,49.2,100,49.3L100,49.3z"/>
		<path class="st0" d="M115.2,73.5c-2.6,3.6-4.8,6.7-9.3,7.4c-1.2,0.2-2.8,0.4-3.4-0.5c-0.7-1,0.5-2.2,1.2-3.2c1.6-2.2,4-3,6.6-3.3
			C111.8,73.7,113.2,73.6,115.2,73.5"/>
		<path class="st0" d="M109.8,82.4c-2.6,2.7-5.1,4.8-8.5,5.5c-1.9,0.4-4.5,0.4-5-1.1c-0.6-1.5,1.5-3,3.1-3.9
			C102.5,81.2,105.9,81.8,109.8,82.4"/>
		<path class="st0" d="M33.7,67.9c2.5,4.9,2.3,9.4-0.6,12.2c-1.7,1.6-2.2,1.6-3.1-0.6c-1.2-2.6-0.5-5.1,0.7-7.4
			C31.5,70.5,32.5,69.2,33.7,67.9"/>
		<path class="st0" d="M31.5,49.2c0.2,0.1,0.5,0.2,0.6,0.3c1.3,3.9-1.6,9.7-5.4,11.2c-1.6,0.7-2.2,0.1-2.3-1.3
			c-0.3-2.7,0.9-4.9,2.9-6.7C28.7,51.5,30.2,50.4,31.5,49.2L31.5,49.2z"/>
		<path class="st0" d="M20.5,42.7c4.1,3.6,5.6,8,4,11.5c-1,2.1-1.4,2.2-3.1,0.5c-2-2-2.5-4.5-2.2-7.2C19.5,45.9,19.7,44.3,20.5,42.7
			"/>
		<path class="st0" d="M91.9,29.5c4.3,1.8,8.4,3.6,9.3,8.5c0.4,2.2-0.1,2.6-2.4,2c-3-0.8-4.7-2.8-5.7-5.4C92.5,33,92,31.4,91.9,29.5
			"/>
		<path class="st0" d="M83.4,101.2c-3.7,0.9-6.9,1.5-10.2,0.4c-1.8-0.6-4.1-1.9-3.7-3.4c0.4-1.7,3.1-1.9,5-1.8
			C78,96.7,80.7,98.6,83.4,101.2"/>
		<path class="st0" d="M116.8,64.9c-1.9,3.7-3.7,6.9-7.8,8.2c-1.3,0.4-3,0.9-3.8-0.1c-0.7-0.9,0.2-2.3,0.9-3.4
			C108.5,66,112.4,65.5,116.8,64.9"/>
		<path class="st0" d="M39.7,29.5c-0.5,3.1-1.2,5.7-2.9,7.9c-1.4,1.8-5.3,3.5-6.2,2.8c-0.9-0.7,0-4.3,1.6-6.1
			C34.1,31.9,36.6,30.7,39.7,29.5"/>
		<path class="st0" d="M97.6,67.4c2.7,3.6,5.3,6.7,4.2,11c-0.3,1-0.5,2.4-1.6,2.6c-1.1,0.2-1.9-1-2.5-1.8c-2-2.4-2-5-1.3-7.8
			C96.8,70.2,97.1,69.1,97.6,67.4"/>
		<path class="st0" d="M31.6,49.2c-0.4-0.4-0.7-0.1-1.1-0.1c-3.3,0.5-3.7,0-2.5-3c1.7-4.1,5.7-5.3,10-6.6c-1.3,3.8-2.3,7.2-6.1,9.2
			C31.7,48.7,31.4,48.8,31.6,49.2C31.5,49.2,31.6,49.2,31.6,49.2"/>
		<path class="st0" d="M100,49.4c0.3-0.3,0.2-0.5-0.2-0.7c-3.9-1.9-5.1-5.3-6.2-9c5.3,0.7,9.3,3.7,10.2,7.2c0.6,2.3,0.4,2.5-2.1,2.3
			C101.2,49.2,100.5,48.2,100,49.4C100,49.3,100,49.4,100,49.4"/>
		<path class="st0" d="M38.3,97.2c4.1-3.8,8.9-5,12.6-3.2c1.7,0.8,1.8,1.6,0.3,2.7c-2.3,1.9-5,2.2-7.9,1.8
			C41.6,98.4,40,98,38.3,97.2"/>
		<path class="st0" d="M16,53.9c3.7,2.1,7,3.9,8,7.8c0.4,1.4,0.6,3.2-0.4,3.9c-1.3,0.7-2.9-0.6-4-1.5C16.7,61.4,16.4,57.9,16,53.9"
			/>
		<path class="st0" d="M50,86.3c5.6,0.1,10,3,11,7c0.4,1.5-0.2,1.9-1.7,1.8c-2.8-0.2-4.8-1.5-6.4-3.6C51.6,89.9,50.7,88.2,50,86.3"
			/>
		<path class="st0" d="M110.8,42.6c2.3,4.9,1.9,9.6-0.9,12.3c-1.3,1.3-2.1,1.2-2.9-0.5c-1.2-2.5-0.9-4.9,0.3-7.2
			C108.3,45.5,109.4,44.1,110.8,42.6"/>
		<path class="st0" d="M29.1,90.2c2.9-1.1,5.4-1.9,8.2-1.8c2.5,0.1,6.4,2.4,6.2,3.6c-0.2,1.2-4.4,2.3-6.9,1.8
			C33.9,93.3,31.6,92,29.1,90.2"/>
		<path class="st0" d="M31.9,58.2c0.6,3,1.2,5.6,0.4,8.3c-0.6,2.1-3.5,5.1-4.6,4.9c-1.1-0.2-1.7-4.2-0.9-6.4
			C27.6,62.4,29.5,60.3,31.9,58.2"/>
		<path class="st0" d="M115.5,53.8c-0.4,4.2-0.7,7.9-4.1,10.5c-1,0.7-2.3,1.8-3.4,1.1c-1-0.6-0.8-2.2-0.5-3.4
			C108.2,57.8,111.7,55.9,115.5,53.8"/>
		<path class="st0" d="M81.6,86c-1.3,3-2.6,5.8-5.4,7.6c-1.7,1.1-3.6,1.8-5.6,1.1c-0.8-0.3,0.5-3.8,2-5.2
			C74.3,87.8,77.4,86.5,81.6,86"/>
		<path class="st0" d="M48,101.2c3.7-2.9,6.9-5.7,11.7-4.5c1,0.2,2.3,0.4,2.5,1.5c0.1,0.9-0.9,1.6-1.7,2.1
			C56.7,103.2,52.6,102.3,48,101.2"/>
		<path class="st0" d="M93.7,97.1c-4.4,1.4-8.2,2.5-12.1,0.5c-1-0.5-2.5-1.3-2.4-2.4c0.1-1.1,1.7-1.4,2.8-1.8
			c2.6-0.9,4.9-0.2,7.1,0.9C90.5,95.1,91.8,96,93.7,97.1"/>
		<path class="st0" d="M21.9,82.6c5.6-1.6,10.3-0.6,12.7,2.5c1.3,1.6,0.9,2.3-1,2.7c-2.7,0.6-5.1-0.1-7.3-1.4
			C24.7,85.4,23.3,84.2,21.9,82.6"/>
		<path class="st0" d="M88.5,78.8c0.5,4.1,1.1,7.7-1.4,10.8c-0.8,1.1-2.1,2.6-3.3,2.2c-1.2-0.4-1.4-2.3-1.3-3.6
			C82.4,84.2,85.3,81.7,88.5,78.8"/>
		<path class="st0" d="M93.3,73.4c1.8,3.2,3.2,6.1,2.7,9.4c-0.3,1.7-1,4.1-2.7,4.1c-1.6,0.1-2.4-2.2-2.8-3.8
			C89.6,79.6,91.5,76.7,93.3,73.4"/>
		<path class="st0" d="M102.7,90.1c-4.3,2.6-7.9,5.1-12.7,3.3c-2.4-0.9-2.5-1.5-0.5-3.2c2.4-1.9,5.1-2.1,8-1.5
			C99,88.9,100.6,89.5,102.7,90.1"/>
		<path class="st0" d="M105.1,31.8c2.2,4,4.3,7.7,1.8,12c-1.3,2.2-1.9,2.2-3.4,0.1c-1.6-2.3-1.6-4.7-0.8-7.2
			C103.2,35.1,103.9,33.6,105.1,31.8"/>
		<path class="st0" d="M26.5,31.9c1.5,2.9,2.8,5.3,2.8,8.1c0,2.2-1.9,5.6-3.1,5.6c-1,0-2.8-3.4-2.7-5.5
			C23.6,37.1,24.7,34.5,26.5,31.9"/>
		<path class="st0" d="M42.9,79.4c4.8,2.7,7.1,7.7,5.6,11.5c-0.5,1.2-1,1.5-2.2,0.7c-2-1.4-3.2-3.2-3.6-5.4
			C42.4,83.9,42.6,81.7,42.9,79.4"/>
		<path class="st0" d="M38.2,73.5c2.2,3.9,4.4,7.5,2,11.8c-0.5,0.8-1,2.1-2.1,2c-0.8-0.1-1.4-1.2-1.8-2C34.2,81,36.1,77.4,38.2,73.5
			"/>
		<path class="st0" d="M16.3,73.7c4.5,0.1,8.5,0.1,11.3,3.5c0.8,0.9,1.9,2.3,1.3,3.2c-0.7,1-2.5,0.8-3.8,0.5
			C21,80.1,18.8,77.1,16.3,73.7"/>
		<path class="st0" d="M15,65.2c5.3,0,9.5,2.2,10.9,5.6c1,2.4,0.7,2.8-2,2.6C20.2,73.2,16.3,69.6,15,65.2"/>
		<path class="st0" d="M65.6,98.6c-1.2-0.1-1.9-0.8-1.9-1.9c0-1.1,0.8-1.8,2-1.8c1.2,0,2,0.8,1.9,1.9C67.7,97.9,66.9,98.6,65.6,98.6
			"/>
	</g>
</g>
</svg>
