<?xml version="1.0" encoding="utf-8"?>
<!-- Generator: Adobe Illustrator 23.1.0, SVG Export Plug-In . SVG Version: 6.00 Build 0)  -->
<svg version="1.1" id="Calque_1" xmlns="http://www.w3.org/2000/svg" xmlns:xlink="http://www.w3.org/1999/xlink" x="0px" y="0px"
	 viewBox="0 0 132 132" style="enable-background:new 0 0 132 132;" xml:space="preserve">
<style type="text/css">
	.st0{fill:#B8985D;}
</style>
<g>
	<path class="st0" d="M102.8,19.7H29.1c-4.9,0-8.9,4-8.9,8.9v58.8c0,4.9,4,8.9,8.9,8.9h73.7c4.9,0,8.9-4,8.9-8.9V28.5
		C111.6,23.7,107.6,19.7,102.8,19.7 M102.8,23.7c1.3,0,2.5,0.5,3.4,1.4c0.9,0.9,1.4,2.1,1.4,3.4v58.8c0,1.3-0.5,2.5-1.4,3.4
		c-0.9,0.9-2.1,1.4-3.4,1.4H29.1c-1.3,0-2.5-0.5-3.4-1.4c-0.9-0.9-1.4-2.1-1.4-3.4V28.5c0-1.3,0.5-2.5,1.4-3.4
		c0.9-0.9,2.1-1.4,3.4-1.4H102.8z"/>
	<path class="st0" d="M114,27.8H17.9c-1.4,0-2.6-1.2-2.6-2.6v-3.7c0-1.4,1.2-2.6,2.6-2.6H114c1.4,0,2.6,1.2,2.6,2.6v3.7
		C116.6,26.6,115.4,27.8,114,27.8"/>
	<path class="st0" d="M94.9,42.2H37.5c-0.9,0-1.6-0.7-1.6-1.6c0-0.9,0.7-1.6,1.6-1.6h57.4c0.9,0,1.6,0.7,1.6,1.6
		C96.5,41.5,95.8,42.2,94.9,42.2"/>
	<path class="st0" d="M95,49.1H74c-0.5,0-0.9,0.4-0.9,0.9c0,0.5,0.4,0.8,0.9,0.8h21c0.5,0,0.9-0.4,0.9-0.8
		C95.9,49.5,95.5,49.1,95,49.1"/>
	<path class="st0" d="M95,54H74c-0.5,0-0.9,0.4-0.9,0.9c0,0.5,0.4,0.8,0.9,0.8h21c0.5,0,0.9-0.4,0.9-0.8C95.9,54.3,95.5,54,95,54"/>
	<path class="st0" d="M95,58.8H74c-0.5,0-0.9,0.4-0.9,0.9c0,0.5,0.4,0.8,0.9,0.8h21c0.5,0,0.9-0.4,0.9-0.8
		C95.9,59.2,95.5,58.8,95,58.8"/>
	<path class="st0" d="M95,63.7H74c-0.5,0-0.9,0.4-0.9,0.9c0,0.5,0.4,0.8,0.9,0.8h21c0.5,0,0.9-0.4,0.9-0.8
		C95.9,64.1,95.5,63.7,95,63.7"/>
	<path class="st0" d="M95,68.6H74c-0.5,0-0.9,0.4-0.9,0.9c0,0.5,0.4,0.8,0.9,0.8h21c0.5,0,0.9-0.4,0.9-0.8
		C95.9,68.9,95.5,68.6,95,68.6"/>
	<path class="st0" d="M95,73.4H74c-0.5,0-0.9,0.4-0.9,0.9s0.4,0.8,0.9,0.8h21c0.5,0,0.9-0.4,0.9-0.8S95.5,73.4,95,73.4"/>
	<path class="st0" d="M95,78.3H74c-0.5,0-0.9,0.4-0.9,0.9c0,0.5,0.4,0.8,0.9,0.8h21c0.5,0,0.9-0.4,0.9-0.8
		C95.9,78.7,95.5,78.3,95,78.3"/>
	<path class="st0" d="M68.2,78.3H37.5c-0.5,0-0.9,0.4-0.9,0.9c0,0.5,0.4,0.8,0.9,0.8h30.7c0.5,0,0.9-0.4,0.9-0.8
		C69,78.7,68.6,78.3,68.2,78.3"/>
	<path class="st0" d="M36.6,48.5v30.7c0,0.5,0.4,0.8,0.9,0.8c0.5,0,0.9-0.4,0.9-0.8V48.5c0-0.5-0.4-0.9-0.9-0.9
		C37,47.6,36.6,48,36.6,48.5"/>
	<path class="st0" d="M66.2,55.3H39.1c-0.1,0-0.1-0.1-0.1-0.1c0-0.1,0.1-0.1,0.1-0.1h27.1c0.1,0,0.1,0.1,0.1,0.1
		C66.3,55.3,66.3,55.3,66.2,55.3"/>
	<path class="st0" d="M66.2,60.4H39.1c-0.1,0-0.1-0.1-0.1-0.1c0-0.1,0.1-0.1,0.1-0.1h27.1c0.1,0,0.1,0.1,0.1,0.1
		C66.3,60.4,66.3,60.4,66.2,60.4"/>
	<path class="st0" d="M66.2,65.5H39.1c-0.1,0-0.1-0.1-0.1-0.1c0-0.1,0.1-0.1,0.1-0.1h27.1c0.1,0,0.1,0.1,0.1,0.1
		C66.3,65.5,66.3,65.5,66.2,65.5"/>
	<path class="st0" d="M66.2,70.6H39.1c-0.1,0-0.1-0.1-0.1-0.1c0-0.1,0.1-0.1,0.1-0.1h27.1c0.1,0,0.1,0.1,0.1,0.1
		C66.3,70.6,66.3,70.6,66.2,70.6"/>
	<path class="st0" d="M66.2,75.7H39.1c-0.1,0-0.1-0.1-0.1-0.1c0-0.1,0.1-0.1,0.1-0.1h27.1c0.1,0,0.1,0.1,0.1,0.1
		C66.3,75.7,66.3,75.7,66.2,75.7"/>
	<path class="st0" d="M42,67.5c-0.1,0-0.2,0-0.3-0.1c-0.3-0.2-0.5-0.6-0.3-0.9l4-8c0.1-0.2,0.4-0.4,0.6-0.4c0.3,0,0.5,0.2,0.6,0.4
		l2.5,5l4.8-9.3c0.1-0.2,0.4-0.4,0.6-0.4c0.3,0,0.5,0.2,0.6,0.4l2.5,5.1l2.4-2.9c0.1-0.2,0.3-0.3,0.6-0.3c0.2,0,0.4,0.1,0.5,0.3
		l2.6,3.6c0.2,0.3,0.2,0.7-0.1,1c-0.3,0.2-0.7,0.2-1-0.1l-2.1-2.9l-2.6,3.1c-0.2,0.2-0.4,0.3-0.6,0.2c-0.2,0-0.4-0.2-0.5-0.4
		l-2.4-4.9l-4.8,9.3c-0.1,0.2-0.4,0.4-0.6,0.4c-0.3,0-0.5-0.2-0.6-0.4l-2.5-5l-3.4,6.7C42.5,67.4,42.2,67.5,42,67.5"/>
	<path class="st0" d="M47.1,73c-0.1,0-0.1,0-0.2,0l-5.1-2.6c-0.2-0.1-0.3-0.3-0.2-0.5c0.1-0.2,0.3-0.3,0.5-0.2l4.8,2.4l4.5-6.7
		c0.1-0.1,0.2-0.1,0.3-0.2s0.2,0,0.3,0.1l3.9,3.3l4.8-3.9c0.1-0.1,0.3-0.1,0.4,0l2.7,1.7c0.2,0.1,0.2,0.3,0.1,0.5
		c-0.1,0.2-0.3,0.2-0.5,0.1l-2.5-1.6L56,69.4c-0.1,0.1-0.3,0.1-0.5,0l-3.8-3.2l-4.4,6.7C47.3,73,47.2,73,47.1,73"/>
	<path class="st0" d="M55.5,97.8h10.1l-7,16.2c0,0-0.6,1.6-2.2,1.6h-5.1c0,0-3.1-0.8-1.8-3.7S55.5,97.8,55.5,97.8"/>
	<path class="st0" d="M76.7,97.8H66.6l7,16.2c0,0,0.6,1.6,2.2,1.6h5.1c0,0,3.1-0.8,1.8-3.7C81.4,108.8,76.7,97.8,76.7,97.8"/>
</g>
</svg>
