<?xml version="1.0" encoding="utf-8"?>
<!-- Generator: Adobe Illustrator 23.1.0, SVG Export Plug-In . SVG Version: 6.00 Build 0)  -->
<svg version="1.1" id="Calque_1" xmlns="http://www.w3.org/2000/svg" xmlns:xlink="http://www.w3.org/1999/xlink" x="0px" y="0px"
	 viewBox="0 0 132 132" style="enable-background:new 0 0 132 132;" xml:space="preserve">
<style type="text/css">
	.st0{clip-path:url(#SVGID_2_);}
	.st1{clip-path:url(#SVGID_4_);}
	.st2{fill:#B29768;}
</style>
<g>
	<defs>
		<rect id="SVGID_1_" x="17.3" y="14" width="97.2" height="103.6"/>
	</defs>
	<clipPath id="SVGID_2_">
		<use xlink:href="#SVGID_1_"  style="overflow:visible;"/>
	</clipPath>
	<g class="st0">
		<defs>
			<rect id="SVGID_3_" x="15" y="11.8" width="101.8" height="108"/>
		</defs>
		<clipPath id="SVGID_4_">
			<use xlink:href="#SVGID_3_"  style="overflow:visible;"/>
		</clipPath>
		<g class="st1">
			<path class="st2" d="M54.6,81.3c0,3.6,0.1,6.3,0,9c-0.3,4.7-2.9,7.9-7.5,9.1c-3,0.8-6,1.6-9,2.1c-5.8,0.8-9.2,4-10.7,9.6
				c-0.5,1.8-0.4,5.4-3.6,4.3c-3-1.1-0.6-3.8-0.1-5.6c1.7-6.9,6.2-11,13.3-12.1c2.9-0.4,5.8-1.3,8.6-1.9c1.7-0.4,3.1-1.2,4.1-2.6
				c2-3.1,1.2-13.6-1.3-16.3c-10-10.8-7.6-27.9,5-35.3c1.6-0.9,1.4-1.6,0.7-2.9c-0.9-1.7-1.4-3.6-1.3-5.6c0-1.2,0.6-2,1.8-2.1
				c1,0,1.8,0.6,1.9,1.5c1.4,8.5,7.8,13,14.1,17.4c5.4,3.8,11.3,6.6,18,7.3c1.8,0.2,2.2-0.3,2.1-1.9c-0.1-2.3-0.1-4.6,0.1-6.9
				c1.3-13.6-10.7-23.8-21.2-25.2c-13.4-1.9-26.4,6.8-28.8,19.3c-0.7,3.7-0.4,7.7-0.4,11.5c-0.1,3.7,0.3,7.5-0.1,11.2
				c-0.2,2.1,2.4,5.8-2.7,6c-6.5,0.2-9-1.4-9.4-6.3c-0.2-2.6-0.1-5.1,0-7.7c0-5.3,1.2-6.9,6.3-7.8c2.1-0.4,1.9-1.7,1.9-3.1
				c0.9-15,11.3-25.4,27.2-27.4c12.5-1.5,26.4,7.9,30.2,20.5c0.4,1.3,0.8,2.7,0.9,4.1c0.2,3.2-0.2,6.2,4.7,6.4
				c2.2,0.1,3.5,2.7,3.5,5.3c0,3.2,0,6.4,0,9.6c-0.1,4-1.7,5.8-5.7,6.2c-1.7,0.2-2.4,0.6-2.8,2.3c-2,8.5-7.7,13.3-16,15.4
				c-2.1,0.5-4,0.8-5.5,2.9c-1.5,2.2-8.1,2.5-10.9,1.1c-3.3-1.6-3.4-4.5-3-7.6C59.7,81.3,56,83.6,54.6,81.3z M59.3,83.5
				c4.9-2.6,11.7-3,13.5-0.5c2.1,2.8,4.2,2.1,6.7,1.2c8.3-2.8,11.6-8.3,11.4-19.8c0-1.3,1.3-3.5-1.8-3.6c-2.9-0.1-2.1,1.9-2.2,3.4
				c-0.2,6.2-2.6,11.4-7.4,15.4c-1.2,1-2.7,2.1-4,0.5c-1.4-1.7,0.4-2.7,1.5-3.7c4.3-3.7,6-8.4,6.1-14c0-1.9-0.7-2.7-2.4-3.3
				c-8.5-3-15.8-7.9-22.1-14.3c-0.6-0.6-1-1.8-2.1-1.2c-4.4,2.5-8.6,5.4-9.7,10.8c-2.2,10.6,1.3,18.4,10.6,23.7
				C59.4,79.5,60.6,80.5,59.3,83.5z M36.6,60.1c0-1.5,0-3.1,0-4.6c0-1,0.3-2.2-1.3-2.4c-1.5-0.2-2.7,0.4-2.9,1.9
				c-0.5,3.4-0.4,6.9,0,10.4c0.1,1.3,1.2,1.9,2.5,1.8c1.7-0.1,1.6-1.3,1.6-2.4C36.6,63.1,36.6,61.6,36.6,60.1z M95.3,59.8
				c-0.1,0-0.1,0-0.2,0c0,1.7,0,3.3,0,5c0,1.2,0.1,2.4,1.8,2.2c1.3-0.1,2.2-0.7,2.2-2.1c0-3.3,0.1-6.6,0-9.9c0-1.4-1.1-1.9-2.4-1.9
				c-1.6,0-1.4,1.2-1.4,2.1C95.3,56.8,95.3,58.3,95.3,59.8z M66.3,85.4c-1.5,0-3.3-0.2-3.3,2c0,2.2,1.9,2.1,3.4,2
				c1.2-0.1,2.7,0.8,2.8-1.8C69.2,85.1,67.8,85.5,66.3,85.4z"/>
			<path class="st2" d="M111.2,113.1c0,1.3-0.3,2.1-1.3,2.4c-1.2,0.4-2.1-0.1-2.5-1.1c-0.5-1.3-1-2.6-1.4-4
				c-1.4-4.9-4.5-7.8-9.7-8.7c-3.4-0.6-6.8-1.4-10.1-2.3c-3.3-0.9-5.6-3-6.7-6.3c-0.5-1.3-0.7-2.6,0.8-3.3c1.5-0.7,2.4,0.2,2.8,1.6
				c0.9,2.7,3,4,5.7,4.5c3.3,0.6,6.5,1.4,9.7,2.1C105.3,99.5,111.2,106.8,111.2,113.1z"/>
		</g>
	</g>
</g>
</svg>
