<?xml version="1.0" encoding="utf-8"?>
<!-- Generator: Adobe Illustrator 23.1.0, SVG Export Plug-In . SVG Version: 6.00 Build 0)  -->
<svg version="1.1" id="Calque_1" xmlns="http://www.w3.org/2000/svg" xmlns:xlink="http://www.w3.org/1999/xlink" x="0px" y="0px"
	 viewBox="0 0 43 43" style="enable-background:new 0 0 43 43;" xml:space="preserve">
<style type="text/css">
	.st0{fill:#26343E;}
	.st1{fill:#C29F58;}
</style>
<g>
	<path class="st0" d="M2.1,21.5c0-10.6,8.8-19.6,19.7-19.4c10.5,0.2,19,8.8,19,19.4c0,10.7-8.8,19.6-19.8,19.4
		C10.6,40.7,2.1,32,2.1,21.5z M5.7,21.5c0.1,8.8,7.1,15.8,15.8,15.7c8.7-0.1,15.7-7.1,15.7-15.7c0-8.7-7.2-15.9-15.8-15.8
		C12.7,5.8,5.8,12.9,5.7,21.5z"/>
	<path class="st1" d="M16.3,21.2c-0.1-0.6-0.1-1.2,0.5-1.7c1.5-1.4,3.1-2.6,5.1-3c0.7-0.2,1.4,0,2.1,0.4c0.9,0.5,1.2,1.4,0.8,2.4
		c-1.2,3.1-2.3,6.3-3.5,9.4c-0.1,0.2-0.3,0.6,0,0.7c0.2,0.1,0.6,0.1,0.8,0c0.3-0.1,0.6-0.4,0.9-0.6c0.7-0.6,1.3-1.3,2.1-2
		c0,0.7,0.1,1.2-0.4,1.7c-1,1-1.9,2.1-3.3,2.6c-1.1,0.4-2.1,0.7-3.3,0.4c-0.3-0.1-0.6-0.2-0.8-0.3c-0.9-0.5-1.1-1.3-0.8-2.2
		c1.2-3.1,2.3-6.2,3.5-9.4c0-0.1,0.1-0.3,0.1-0.4c0-0.2,0-0.4-0.1-0.5c-0.1-0.1-0.4-0.2-0.5-0.1c-0.4,0.2-0.8,0.4-1.1,0.7
		c-0.7,0.6-1.3,1.3-1.9,2C16.4,21.3,16.3,21.3,16.3,21.2z"/>
	<path class="st1" d="M24.4,15.1c-0.5-0.2-1-0.3-1.5-0.5c-0.7-0.3-1-0.9-1-1.7c0-0.8,0.4-1.3,1-1.7c0.9-0.5,1.8-0.5,2.7-0.1
		c0.9,0.3,1.4,1.1,1.3,1.9c-0.1,0.9-0.7,1.6-1.7,1.9C25.1,15,24.8,15,24.4,15.1C24.5,15,24.5,15.1,24.4,15.1z"/>
</g>
</svg>
